<svg xmlns="http://www.w3.org/2000/svg" width="4.11in" height="2.84in" viewBox="0 0 295.93 204.22"><path d="M4.84 11.83l41.79-11 3.92-.8a10.41 10.41 0 013 .18s2 .85 2 .87c1.91 1.34 3.76 2.49 5.55 3.72l8 5a1.62 1.62 0 00.35.17l4.3 2.25 14.74-.5c3.77-.08 7.56-.29 11.32-.23a14 14 0 014.62.83l2.79 1.74 3.81 3.18 4 2.22 4.94 2.37 8.33 2.54 11.19-3.55 32.21-12.4 10.88-4.38 6.32-1.89c.38-.12 3.91-.68 4.3-.69l2.85.2a26.33 26.33 0 014.95 1c1.91.51 3.7 1.92 5.4 2.93.49 0 1.56.93 2 1.19s1.34 1.33 2 1.25a53.72 53.72 0 006.6-1.48 71.66 71.66 0 008.22-2.52c2.57-1 5.13-2.32 8-2.26 8 .18 13.9 6.07 20.86 9.11l7.63 3.34 9.86 3.81 8.19 3.34c-1.56-.33-3.16-.59-4.68-1a153.49 153.49 0 01-19.15-7c-3.44-1.54-6.72-3.43-10.06-5.18a70.73 70.73 0 00-8.81-4.26 10.11 10.11 0 00-6.43.07l-3.75 1.2-13 3.82-2.78.63 23.48 11.47-4.1-6.67 10.43 8.9-5.77-8.74 15.07 12.24-.86-2.13 7.87 2.53-6.88-6.2-4.47-3.81 7.44 3 7.26 5.89 4.65 3.83-2-3-7.73-7.32 10.89 7.16 7.25 5.88 3.35 1.27-7.07-7c1.73 1 3.52 1.82 5.23 2.81.44.25 4.86 3 4.64 3.38l-.93 1.46c-.33.51-.35.77-.9.76a4.1 4.1 0 01-.9-.23l-3-.79-7.54-2a15 15 0 00-3.25-.84c-4.49-1.17-9.14-2-13.65-3.25a94.44 94.44 0 01-13.39-4.78c-3.66-1.6-7.28-3.29-10.88-5l-2.14-1-5-2.52a74.58 74.58 0 01-7.08-3.73c-2.29-1.47-4.3-3.34-6.66-4.72-1.13-.66-2.36-1.21-3.45-1.94a10.94 10.94 0 00-2.29-.52 24 24 0 00-2.66-.52 29.59 29.59 0 00-5.24.06c-1.84.09-3.89 1.15-5.63 1.74l-3.9 1.31-7.56 3.1-9 3.36-16.07 6c-3.6 1.35-7.16 2.69-10.85 3.78l-7.25 2.16a1 1 0 01-.28.09l15.66 6.2c10.74 2.86 15.41 4.62 27.68 4.29 4.75-.12 8.11.72 13.51 2.31l14.88 6.69s-7.57-2.3-7.8-2.39c-7.11-2.75-11.34-4-19-4.54l-7 .14c-5.25-.51-16.11-.88-22.27-1s-11.67-.24-18.92-.24c-3.37 0-7-.26-10.34-.56l-9.7-1.11-11.7-2.73-11.91-4.71-7.26-4.51 9.86 4.29 13.4 4.47 11 2.24 15.64 1.18 16.83.09 14.42 1-5.39-1.35a76.61 76.61 0 01-11.13-3.23c-3.8-1.59-7.61-3.16-11.37-4.82-3.29-1.46-6.84-2.16-10.2-3.48a54.63 54.63 0 01-8.83-4.71l-5.8-4.38c-.58-.9-4.11-1.51-4.53-1.51l-25.09.78 10.3 7.36-1.15-.1a18.3 18.3 0 01-2.2-1.13l-8.17-6.2-7.58-4.18-3.9-2.32a43.49 43.49 0 00-3.66-2.59L54.5 1.72c-3-1.92-7.71.15-10.79 1L29.79 6.41l-13.88 3.71c-1.93.52-3.85 1-5.78 1.55-2.12.55-2.91.8-5.29.16z" fill="#006937" fill-rule="evenodd"/><path d="M193.1 9.34c1.52.2 2.27.68 3.81 2.17a37.72 37.72 0 005.25 4.62l8.35 4.59 10.5 5.13 11.21 4.72 13.41 3.82 9.73 2.51 8.86 3.39 7.34 2.56-.87.69-2.13 1-3.72-1.28-6.47-2.54c-7.79-3.18-16.21-4.29-24.2-6.81a56.7 56.7 0 01-5.67-2.11c-.93-.41-1.84-.85-2.73-1.33a5.32 5.32 0 00-1.25-.65c-1.51-.28-1.82 1.06-.69 1.86.51.36 1 .67 1.59 1s1 .46.68 1.12a22.22 22.22 0 01-2.24-.56l-2.23-1.52-2.55-2.75c-1.12-1.22-2.27-3.4-4.14-3.41a2.62 2.62 0 00.38 2.2c.14.26.46 1.28.73 1.41-1.14-.57-2.26-1.09-3.44-1.55s-2-2.23-2.79-3.3l-.85-1.35c-.51.11-.84.15-1.06.69-.38.91 0 2.51.09 3.48.15 2.36 1.21 4.69 1.9 7l-1.19-.42-1.6-2.35-1.3-2.55-1.49-3.81-2-4.83-.3.85a7.5 7.5 0 00.15 4.52 14.91 14.91 0 00.8 2.64l.57 1.11c-.52-1-1.83-1.74-2.52-2.66-1.73-2.3-2.44-5.23-3.06-8l-.57-2.53-.68-1.31c.08.15-.59 1.27-.69 1.45a10.53 10.53 0 00-1.05 2.47 9.45 9.45 0 00-.16 1.19l-.17 1.85a11.63 11.63 0 001.2 5 24.88 24.88 0 002.9 5.67l-2.89-1.71c-1.18-1.1-2.78-2.18-3.44-3.68l-.74-1.66a6.72 6.72 0 01-.41-1.05 7 7 0 01-.18-1.37 18.92 18.92 0 01-.17-3.52c.09-.63.28-1.26.41-1.88a9.3 9.3 0 01.76-3.3 5 5 0 00-2.63 1.82c-.57.58-1.19 1.06-1.81 1.58s-1 1-1.54 1.47c-.25.24-1 .7-1.08 1l1.44-4.3a14.75 14.75 0 00.72-1.35l-1.62.35a2.3 2.3 0 00-.43.12 2.16 2.16 0 00-.59.41 6.13 6.13 0 00-.7.65c-1 1.15-1.49 3.11-2.09 4.53-.33-.78-1-1.73-.82-2.58a8 8 0 01.59-2.84 5.49 5.49 0 012.43-1.66c1-.51 2-1.2 3-1.7 0 0 3.1-1.51 3.18-1.52 1.22-.19 2.21-.99 2.97-.9zm-75.68 33.65l7.82-.79 4.65 1.44 4.46.78-5.58.47-6.6-.56-4.75-1.34zm11.35-1.75l.67-.07 2.22-.26 12.18 1.61-2.97.95-12.1-2.23zm11.91-.79l7.26.14 14.51 3.36-5.21-.16-9.3-1.75-7.26-1.59zm37.03-24.32l-.56 2.54-4.28-.16 4.84-2.38zm-83.36 7.15l.37 2.38 11.91 2.39-6.56-3.58-5.72-1.19z" fill="#006937" fill-rule="evenodd"/><path fill="#006937" fill-rule="evenodd" d="M211.58 29.48l5.95 8.11 5.03.79-10.98-9.69m35.73 11.6l18.23 4.61-2.6 1.11-15.63-5.72zm-9.49-28.77l2.04 1.19.75 1.35v1.43l-2.24-.63-.97-1.36.42-1.98zm17.5 113.84q19 3.09 29.82 13.88t10.79 26.73q0 19.33-12.85 28.78t-39.27 9.46h-71.09l11.5-6.37 2-.1q12.44-.83 14.7-3.5t2.3-16.65V78.72q0-14-2.36-16.66t-14.7-3.49l-2-.21v-6.3h62.51q21 0 32 8.64t11 25.08a34.57 34.57 0 01-8.63 23.34q-8.55 9.87-25.71 16.24zm-30.84 3.36v48.83q0 15.72 2.68 17.06c3.36 1.79 8.35 2.67 15 2.67q14 0 22.72-8.42t8.74-22.11q0-38-49.14-38zm0-7h6.27q18.41 0 27.55-8.44t9.26-25.39q0-15.93-8.54-22.41c-5.62-4.39-15.13-6.11-29.29-6.58h-5.25v62.82z"/><path d="M219.44 177.01a64 64 0 01-21.59 19.38q-13.27 7.44-31.9 7.44a75 75 0 01-29.61-5.76 68.78 68.78 0 01-23.38-16.13 74.63 74.63 0 01-15.35-24.73 86.7 86.7 0 01-5.55-31.49 86 86 0 015.65-31.75 72.1 72.1 0 0115.65-24.55 70.89 70.89 0 0123.67-15.82 77 77 0 0129.72-5.66 73.46 73.46 0 0114.47 1.47 69 69 0 0114.06 4.4 57.51 57.51 0 0112.28 7.23 45.53 45.53 0 019.51 10l-13.85 13.78c-3.43-5-9.88-10.44-16.15-13.72a43 43 0 00-20.3-4.93 49.49 49.49 0 00-38.83 17.6 59 59 0 00-10.72 18.95 69.22 69.22 0 00-3.76 23 73.29 73.29 0 003.66 23.47 57.11 57.11 0 0010.5 19 48.57 48.57 0 0016.6 12.59 50.72 50.72 0 0021.89 4.61 46.23 46.23 0 0021.59-5 42.42 42.42 0 0016-14.67z" fill="#80bc00" stroke="#80bc00" stroke-miterlimit="10" stroke-width=".68"/><path d="M40.4 140.13v36.8q0 13.68 2.47 16.66t14.7 3.49l4.42.1v6.38H0v-6.38l2-.1c8.3-.54 13.19-1.71 14.71-3.49s2.36-7.4 2.36-16.66v-98.9q0-14-2.36-16.65C15.19 59.6 10.3 58.43 2 57.88l-2-.16v-6.31h45.22l15-.52 7.09-.2q44.41 0 44.41 40.19 0 24.59-16.24 36.91t-48.6 12.34zm0-7h7.71q20.46 0 30.64-10.49T88.93 91.3q0-17.79-7.81-25.4t-25.9-7.61H40.4v74.85z" fill="#006937" fill-rule="evenodd"/><path d="M247.06 15.03c0 .11-.09.17-.23.15" fill="#00693f" fill-rule="evenodd"/></svg>